<svg xmlns="http://www.w3.org/2000/svg" viewBox="0 0 44 48" width="44" height="48">
  <!-- lab coat -->
  <path d="M6 3 Q22 -1 38 3 L40 46 Q22 49 4 46 Z" fill="#f7fafc"/>
  <path d="M6 3 Q13 1 16 3 L15 46 Q9 47 4 46 Z" fill="#e9eef4"/>
  <!-- lapels -->
  <path d="M22 2 L12 8 L20 23 Z" fill="#eef2f7" stroke="#d6dee8" stroke-width="1"/>
  <path d="M22 2 L32 8 L24 23 Z" fill="#eef2f7" stroke="#d6dee8" stroke-width="1"/>
  <!-- shirt + tie -->
  <path d="M22 3 L18 16 L22 14 L26 16 Z" fill="#cbd5e0"/>
  <path d="M22 13 L19 31 L22 37 L25 31 Z" fill="#3182ce"/>
  <line x1="22" y1="22" x2="22" y2="46" stroke="#dde3ec" stroke-width="1.5"/>
  <circle cx="22" cy="30" r="1.3" fill="#cbd5e0"/>
  <circle cx="22" cy="39" r="1.3" fill="#cbd5e0"/>
  <!-- chest pocket + pen -->
  <rect x="27" y="33" width="9" height="10" rx="1.5" fill="#eef2f7" stroke="#d6dee8" stroke-width="1"/>
  <rect x="29" y="35" width="2" height="5" rx="1" fill="#90cdf4"/>
</svg>
